<?xml version="1.0" encoding="UTF-8"?>
<svg id="Layer_3" data-name="Layer 3" xmlns="http://www.w3.org/2000/svg" xmlns:xlink="http://www.w3.org/1999/xlink" viewBox="0 0 684.49 312.46">
  <defs>
    <style>
      .cls-1 {
        fill: url(#linear-gradient-2);
      }

      .cls-2 {
        letter-spacing: .04em;
      }

      .cls-3 {
        fill: url(#linear-gradient-6);
      }

      .cls-4 {
        letter-spacing: .05em;
      }

      .cls-5 {
        fill: url(#linear-gradient-11);
      }

      .cls-6 {
        fill: url(#linear-gradient-10);
      }

      .cls-7 {
        fill: url(#linear-gradient-5);
      }

      .cls-8 {
        fill: url(#linear-gradient-7);
      }

      .cls-9 {
        font-family: Roboto-Medium, Roboto;
        font-size: 30.65px;
        font-weight: 500;
      }

      .cls-10 {
        fill: url(#linear-gradient-9);
      }

      .cls-11 {
        fill: url(#linear-gradient-3);
      }

      .cls-12 {
        fill: url(#linear-gradient);
      }

      .cls-13 {
        fill: url(#linear-gradient-4);
      }

      .cls-14 {
        fill: url(#linear-gradient-8);
      }
    </style>
    <linearGradient id="linear-gradient" x1="0" y1="114.29" x2="117.12" y2="114.29" gradientUnits="userSpaceOnUse">
      <stop offset="0" stop-color="#ac8502"/>
      <stop offset=".82" stop-color="#fed348"/>
    </linearGradient>
    <linearGradient id="linear-gradient-2" x1="25.99" y1="166.89" x2="97.56" y2="166.89" gradientUnits="userSpaceOnUse">
      <stop offset="0" stop-color="#fed348"/>
      <stop offset="1" stop-color="#a98200"/>
    </linearGradient>
    <linearGradient id="linear-gradient-3" x1="108.93" y1="166.55" x2="126.85" y2="166.55" xlink:href="#linear-gradient-2"/>
    <linearGradient id="linear-gradient-4" x1="140.16" y1="166.68" x2="196.37" y2="166.68" xlink:href="#linear-gradient-2"/>
    <linearGradient id="linear-gradient-5" x1="209.68" y1="166.68" x2="267.64" y2="166.68" xlink:href="#linear-gradient-2"/>
    <linearGradient id="linear-gradient-6" x1="297.02" x2="368.6" xlink:href="#linear-gradient-2"/>
    <linearGradient id="linear-gradient-7" x1="379.96" y1="166.84" x2="425.53" y2="166.84" xlink:href="#linear-gradient-2"/>
    <linearGradient id="linear-gradient-8" x1="436.07" y1="166.68" x2="492.29" y2="166.68" xlink:href="#linear-gradient-2"/>
    <linearGradient id="linear-gradient-9" x1="500.79" y1="166.8" x2="553.83" y2="166.8" xlink:href="#linear-gradient-2"/>
    <linearGradient id="linear-gradient-10" x1="556.8" y1="166.68" x2="621.61" y2="166.68" xlink:href="#linear-gradient-2"/>
    <linearGradient id="linear-gradient-11" x1="631.85" y1="166.34" x2="684.49" y2="166.34" xlink:href="#linear-gradient-2"/>
  </defs>
  <text class="cls-9" transform="translate(110.9 230.82) scale(1.12 1)"><tspan class="cls-2" x="0" y="0">E</tspan><tspan class="cls-4" x="19.06" y="0">ducation &amp; Career Solutions</tspan></text>
  <path class="cls-12" d="M112.52,119.37c2.65,5.91,2.04,11.99,1.43,17.99l-3.75-21.2c-.09,.04-.18,.08-.27,.12,.07,.2,.14,.41,.2,.61,1.95,6.16,.65,12.12-.67,18.03l-1.06-17.94c-4.09,1.88-8.17,3.76-12.27,5.64-6.3-4-14.63-6.7-23.82-7.24-7.82-.46-15.15,.71-21.22,3.06,5.24-1.38,11.14-1.99,17.36-1.62,9.44,.56,17.98,3.26,24.46,7.29-.02,0-.04,.02-.04,.02-.04,5.31-.1,10.61-.15,15.92-8.78-4.47-26.73-11.73-48.03-6.44-3.69,.91-7.1,2.12-10.21,3.47-1.71,.73-3.31,1.52-4.82,2.32-.48,.25-.95,.51-1.43,.77,.07-5.32,.14-10.65,.2-15.98-9.48-2.78-18.96-5.56-28.44-8.34,19.42-9.14,38.84-18.28,58.27-27.42,19.62,8.18,39.24,16.38,58.85,24.56-2.13,.97-4.25,1.95-6.38,2.94,.63,1.15,1.27,2.3,1.79,3.45Z"/>
  <g>
    <path class="cls-1" d="M70.22,179.7c-.89,.62-2.03,1.11-3.43,1.48-1.4,.37-3.02,.55-4.86,.55-2.46,0-4.49-.25-6.09-.76-1.6-.51-2.65-1.38-3.12-2.61-1.91-4.95-3.48-8.95-4.71-12.02-1.23-3.06-2.19-5.75-2.87-8.05h-.51c-.2,3.32-.36,6.34-.46,9.07-.1,2.73-.17,5.38-.2,7.97-.04,2.59-.1,5.2-.2,7.84-.1,2.64-.26,5.57-.46,8.77-.89,.28-2.05,.52-3.48,.72-1.43,.2-2.87,.29-4.3,.29-3,0-5.34-.39-7.01-1.18-1.67-.79-2.51-2.22-2.51-4.3l2.97-43.01c.55-.73,1.74-1.52,3.58-2.36,1.84-.84,4.44-1.27,7.78-1.27,3.62,0,6.45,.46,8.5,1.39,2.05,.93,3.55,2.43,4.51,4.51,.61,1.35,1.28,2.9,2,4.64,.72,1.74,1.43,3.54,2.15,5.4,.72,1.86,1.42,3.7,2.1,5.52,.68,1.83,1.3,3.47,1.84,4.93h.51c1.64-4.72,3.28-9.29,4.92-13.7,1.64-4.41,3.14-8.11,4.51-11.09,1.02-.45,2.34-.83,3.94-1.14,1.6-.31,3.4-.46,5.38-.46,3.34,0,6.08,.41,8.19,1.22,2.12,.82,3.34,1.98,3.69,3.5,.27,1.13,.56,2.85,.87,5.19,.31,2.33,.63,4.96,.97,7.88,.34,2.92,.68,6.02,1.02,9.28,.34,3.26,.67,6.4,.97,9.4,.31,3.01,.56,5.76,.77,8.26,.2,2.5,.34,4.43,.41,5.78-1.16,.56-2.37,.97-3.63,1.22-1.26,.25-2.88,.38-4.86,.38-2.6,0-4.78-.37-6.55-1.1-1.78-.73-2.73-2.16-2.87-4.3-.41-6.13-.66-11.64-.77-16.53s-.26-8.99-.46-12.31h-.51c-.68,2.19-1.67,4.95-2.97,8.26-1.3,3.32-2.87,7.56-4.71,12.73Z"/>
    <path class="cls-11" d="M126.85,191.93c-.75,.17-1.93,.34-3.53,.51-1.6,.17-3.19,.25-4.76,.25s-2.95-.1-4.15-.29c-1.2-.2-2.2-.55-3.02-1.05-.82-.51-1.43-1.21-1.84-2.11-.41-.9-.61-2.08-.61-3.54v-44.52c.75-.11,1.95-.27,3.58-.46,1.64-.2,3.21-.3,4.71-.3s2.95,.1,4.15,.3c1.19,.2,2.2,.55,3.02,1.05s1.43,1.21,1.84,2.11c.41,.9,.61,2.08,.61,3.54v44.52Z"/>
    <path class="cls-13" d="M196.37,190.5c-.96,.79-2.34,1.39-4.15,1.81-1.81,.42-3.98,.63-6.5,.63s-4.91-.31-7.17-.93c-2.25-.62-4.1-2.11-5.53-4.47l-10.14-17.03c-1.02-1.74-1.95-3.39-2.76-4.93-.82-1.55-1.71-3.33-2.66-5.35l-.61,.08c.27,3.04,.43,6.13,.46,9.28,.03,3.15,.05,6.24,.05,9.28v13.07c-.75,.17-1.89,.34-3.43,.51-1.54,.17-3.06,.25-4.56,.25s-2.83-.08-3.99-.25c-1.16-.17-2.12-.51-2.87-1.01-.75-.51-1.33-1.19-1.74-2.07-.41-.87-.61-2.01-.61-3.42v-42.16c.96-1.12,2.42-1.97,4.4-2.53,1.98-.56,4.1-.84,6.35-.84,2.53,0,4.93,.32,7.22,.97,2.29,.65,4.11,2.12,5.48,4.43l10.24,17.03c1.02,1.74,1.95,3.39,2.76,4.93,.82,1.55,1.71,3.33,2.66,5.35l.51-.08c-.27-3.04-.44-6.07-.51-9.11-.07-3.04-.1-6.07-.1-9.11v-13.66c.75-.17,1.9-.34,3.43-.51s3.05-.25,4.56-.25c3,0,5.29,.44,6.86,1.31,1.57,.87,2.36,2.69,2.36,5.44v43.34Z"/>
    <path class="cls-7" d="M233.23,193.62c-1.16,0-2.49-.03-3.99-.08-1.5-.06-3.06-.17-4.66-.34-1.6-.17-3.21-.38-4.81-.63-1.6-.25-3.09-.6-4.45-1.05-3.75-1.18-5.63-3.23-5.63-6.16v-39.38c0-1.18,.39-2.09,1.18-2.74,.78-.65,1.86-1.17,3.23-1.56,2.93-.79,6.04-1.31,9.32-1.56,3.28-.25,6.21-.38,8.81-.38,5.32,0,10.15,.53,14.49,1.6,4.33,1.07,8.05,2.71,11.16,4.93,3.11,2.22,5.51,5.02,7.22,8.39,1.71,3.37,2.56,7.37,2.56,11.97s-.82,8.42-2.46,11.76c-1.64,3.35-3.98,6.16-7.01,8.43-3.04,2.28-6.67,3.98-10.91,5.1-4.23,1.12-8.91,1.69-14.03,1.69Zm-5.73-12.31c.75,.11,1.67,.21,2.77,.3,1.09,.08,2.12,.13,3.07,.13,2.32,0,4.45-.28,6.4-.84,1.94-.56,3.62-1.43,5.02-2.61,1.4-1.18,2.49-2.71,3.28-4.6,.78-1.88,1.18-4.15,1.18-6.79,0-5.06-1.43-8.87-4.3-11.43-2.87-2.56-6.69-3.84-11.47-3.84-.96,0-1.93,.03-2.92,.08-.99,.06-2,.14-3.02,.25v29.35Z"/>
    <path class="cls-3" d="M341.26,179.7c-.89,.62-2.03,1.11-3.43,1.48-1.4,.37-3.02,.55-4.86,.55-2.46,0-4.49-.25-6.09-.76-1.6-.51-2.65-1.38-3.12-2.61-1.91-4.95-3.48-8.95-4.71-12.02-1.23-3.06-2.19-5.75-2.87-8.05h-.51c-.2,3.32-.36,6.34-.46,9.07-.1,2.73-.17,5.38-.2,7.97-.04,2.59-.1,5.2-.2,7.84-.1,2.64-.26,5.57-.46,8.77-.89,.28-2.05,.52-3.48,.72-1.43,.2-2.87,.29-4.3,.29-3,0-5.34-.39-7.02-1.18-1.67-.79-2.51-2.22-2.51-4.3l2.97-43.01c.55-.73,1.74-1.52,3.58-2.36,1.84-.84,4.44-1.27,7.78-1.27,3.62,0,6.45,.46,8.5,1.39,2.05,.93,3.55,2.43,4.51,4.51,.61,1.35,1.28,2.9,2,4.64,.72,1.74,1.43,3.54,2.15,5.4s1.42,3.7,2.1,5.52c.68,1.83,1.3,3.47,1.84,4.93h.51c1.64-4.72,3.28-9.29,4.92-13.7,1.64-4.41,3.14-8.11,4.51-11.09,1.02-.45,2.34-.83,3.94-1.14,1.6-.31,3.39-.46,5.37-.46,3.34,0,6.08,.41,8.19,1.22,2.12,.82,3.34,1.98,3.69,3.5,.27,1.13,.56,2.85,.87,5.19,.31,2.33,.63,4.96,.97,7.88,.34,2.92,.68,6.02,1.02,9.28,.34,3.26,.67,6.4,.97,9.4,.31,3.01,.56,5.76,.77,8.26,.2,2.5,.34,4.43,.41,5.78-1.16,.56-2.37,.97-3.64,1.22s-2.88,.38-4.86,.38c-2.6,0-4.78-.37-6.55-1.1-1.78-.73-2.73-2.16-2.87-4.3-.41-6.13-.67-11.64-.77-16.53s-.26-8.99-.46-12.31h-.51c-.68,2.19-1.67,4.95-2.97,8.26-1.3,3.32-2.87,7.56-4.71,12.73Z"/>
    <path class="cls-8" d="M379.96,149.01c0-2.42,.85-4.33,2.56-5.73,1.71-1.4,4.03-2.11,6.96-2.11h33.79c.48,.62,.9,1.43,1.28,2.45,.38,1.01,.56,2.08,.56,3.2,0,2.14-.56,3.65-1.69,4.55-1.13,.9-2.61,1.35-4.45,1.35h-21.61v7.84h23.04c.48,.62,.9,1.42,1.28,2.4,.37,.98,.56,2.04,.56,3.16,0,2.14-.55,3.65-1.64,4.55-1.09,.9-2.56,1.35-4.4,1.35h-18.84v8.85h26.32c.48,.62,.9,1.43,1.28,2.45,.38,1.01,.56,2.08,.56,3.2,0,2.14-.56,3.67-1.69,4.6-1.13,.93-2.61,1.39-4.45,1.39h-29.9c-2.93,0-5.26-.7-6.96-2.11-1.71-1.4-2.56-3.32-2.56-5.73v-35.67Z"/>
    <path class="cls-14" d="M492.29,190.5c-.96,.79-2.34,1.39-4.15,1.81-1.81,.42-3.98,.63-6.5,.63s-4.92-.31-7.17-.93c-2.25-.62-4.1-2.11-5.53-4.47l-10.14-17.03c-1.02-1.74-1.94-3.39-2.76-4.93-.82-1.55-1.71-3.33-2.66-5.35l-.61,.08c.27,3.04,.43,6.13,.46,9.28,.03,3.15,.05,6.24,.05,9.28v13.07c-.75,.17-1.9,.34-3.43,.51-1.53,.17-3.06,.25-4.56,.25s-2.83-.08-3.99-.25-2.12-.51-2.87-1.01c-.75-.51-1.33-1.19-1.74-2.07-.41-.87-.61-2.01-.61-3.42v-42.16c.96-1.12,2.42-1.97,4.4-2.53,1.98-.56,4.1-.84,6.35-.84,2.53,0,4.93,.32,7.22,.97,2.29,.65,4.11,2.12,5.48,4.43l10.24,17.03c1.02,1.74,1.94,3.39,2.76,4.93,.82,1.55,1.71,3.33,2.66,5.35l.51-.08c-.27-3.04-.45-6.07-.51-9.11-.07-3.04-.1-6.07-.1-9.11v-13.66c.75-.17,1.89-.34,3.43-.51s3.05-.25,4.56-.25c3,0,5.29,.44,6.86,1.31,1.57,.87,2.36,2.69,2.36,5.44v43.34Z"/>
    <path class="cls-10" d="M502.73,152.97c-.48-.62-.92-1.46-1.33-2.53-.41-1.07-.61-2.19-.61-3.37,0-2.19,.6-3.77,1.79-4.72,1.19-.96,2.75-1.43,4.66-1.43h44.64c.48,.62,.92,1.46,1.33,2.53,.41,1.07,.61,2.19,.61,3.37,0,2.19-.6,3.77-1.79,4.72-1.2,.96-2.75,1.43-4.66,1.43h-11.37v38.96c-.75,.17-1.93,.34-3.53,.51-1.6,.17-3.19,.25-4.76,.25s-2.95-.1-4.15-.29c-1.2-.2-2.2-.55-3.02-1.05-.82-.51-1.43-1.21-1.84-2.11-.41-.9-.61-2.08-.61-3.54v-32.72h-15.36Z"/>
    <path class="cls-6" d="M556.8,166.63c0-4.38,.83-8.26,2.51-11.64,1.67-3.37,3.96-6.2,6.86-8.48,2.9-2.28,6.31-4.01,10.24-5.19,3.92-1.18,8.17-1.77,12.75-1.77s8.82,.59,12.75,1.77c3.92,1.18,7.35,2.91,10.29,5.19,2.93,2.28,5.24,5.1,6.91,8.48,1.67,3.37,2.51,7.25,2.51,11.64s-.82,8.28-2.46,11.68c-1.64,3.4-3.91,6.24-6.81,8.52-2.9,2.28-6.33,4.01-10.29,5.19-3.96,1.18-8.26,1.77-12.9,1.77s-8.94-.6-12.9-1.81c-3.96-1.21-7.37-2.96-10.24-5.27-2.87-2.3-5.12-5.14-6.76-8.52-1.64-3.37-2.46-7.22-2.46-11.55Zm18.43,0c0,5.12,1.26,8.94,3.79,11.47,2.53,2.53,5.9,3.79,10.14,3.79s7.71-1.26,10.24-3.79c2.52-2.53,3.79-6.35,3.79-11.47s-1.25-8.85-3.74-11.38c-2.49-2.53-5.89-3.79-10.19-3.79s-7.63,1.25-10.19,3.75c-2.56,2.5-3.84,6.31-3.84,11.43Z"/>
    <path class="cls-5" d="M649.67,175.74v16.19c-.75,.17-1.93,.34-3.53,.51-1.6,.17-3.19,.25-4.76,.25s-2.95-.1-4.15-.29c-1.2-.2-2.19-.55-2.97-1.05-.79-.51-1.38-1.21-1.79-2.11-.41-.9-.61-2.08-.61-3.54v-39.72c0-1.18,.39-2.09,1.18-2.74,.78-.65,1.86-1.17,3.23-1.56,2.32-.67,5.02-1.17,8.09-1.48,3.07-.31,6.35-.46,9.83-.46,9.42,0,16.52,1.63,21.3,4.89,4.78,3.26,7.17,7.67,7.17,13.24,0,3.49-1.09,6.47-3.28,8.94-2.19,2.47-4.78,4.38-7.78,5.73,2.46,2.76,4.88,5.34,7.27,7.76,2.39,2.42,4.26,4.61,5.63,6.58-.68,1.97-1.93,3.47-3.74,4.51s-3.84,1.56-6.09,1.56c-1.5,0-2.8-.14-3.89-.42-1.09-.28-2.05-.67-2.87-1.18-.82-.51-1.57-1.12-2.25-1.86-.68-.73-1.33-1.52-1.95-2.36l-8.6-11.38h-5.43Zm6.45-11.22c2.59,0,4.64-.55,6.14-1.64,1.5-1.1,2.25-2.71,2.25-4.85s-.84-3.75-2.51-4.85c-1.67-1.1-4.32-1.64-7.94-1.64-1.02,0-1.84,.03-2.46,.08-.61,.06-1.3,.14-2.05,.25v12.65h6.55Z"/>
  </g>
  <rect x="25.99" y="219.64" width="82.94" height="4.42"/>
  <rect x="611.73" y="219.64" width="72.76" height="4.42"/>
</svg>